<?xml version="1.0" encoding="utf-8"?>
<!-- Generator: Adobe Illustrator 16.0.0, SVG Export Plug-In . SVG Version: 6.00 Build 0)  -->
<!DOCTYPE svg PUBLIC "-//W3C//DTD SVG 1.1//EN" "http://www.w3.org/Graphics/SVG/1.1/DTD/svg11.dtd">
<svg version="1.1" id="Layer_1" xmlns="http://www.w3.org/2000/svg" xmlns:xlink="http://www.w3.org/1999/xlink" x="0px" y="0px"
	 width="666.139px" height="836.219px" viewBox="0 0 666.139 836.219" enable-background="new 0 0 666.139 836.219"
	 xml:space="preserve">
<path fill="#ED1C24" d="M603.689,168.308H62.45c-34.491,0-62.45,27.959-62.45,62.45v374.703c0,34.49,27.959,62.45,62.45,62.45
	h541.237c34.491,0,62.45-27.96,62.45-62.45V230.758C666.139,196.267,638.18,168.308,603.689,168.308z M603.689,230.758v53.09
	c-29.172,23.756-75.68,60.695-175.104,138.549c-21.911,17.235-65.314,58.641-95.516,58.158
	c-30.193,0.488-73.611-40.931-95.514-58.158C138.146,344.555,91.627,307.608,62.45,283.848v-53.09H603.689z M62.45,605.461V363.984
	c29.812,23.745,72.09,57.066,136.529,107.526c28.438,22.385,78.237,71.8,134.089,71.5c55.577,0.3,104.746-48.398,134.077-71.489
	c64.439-50.459,106.729-83.789,136.542-107.536v241.478L62.45,605.461L62.45,605.461z"/>
</svg>
