<?xml version="1.0" encoding="utf-8"?>
<!-- Generator: Adobe Illustrator 16.0.0, SVG Export Plug-In . SVG Version: 6.00 Build 0)  -->
<!DOCTYPE svg PUBLIC "-//W3C//DTD SVG 1.1//EN" "http://www.w3.org/Graphics/SVG/1.1/DTD/svg11.dtd">
<svg version="1.1" id="Layer_1" xmlns="http://www.w3.org/2000/svg" xmlns:xlink="http://www.w3.org/1999/xlink" x="0px" y="0px"
	 width="666.139px" height="836.219px" viewBox="0 0 666.139 836.219" enable-background="new 0 0 666.139 836.219"
	 xml:space="preserve">
<path fill="#FFFFFF" d="M333.218,247.115c-94.567,0-170.847,76.278-170.847,170.847c0,94.567,76.279,170.847,170.847,170.847
	c94.568,0,170.848-76.279,170.848-170.847C504.066,323.393,427.786,247.115,333.218,247.115z M333.218,529.033
	c-61.112,0-111.072-49.812-111.072-111.072s49.812-111.073,111.072-111.073c61.262,0,111.073,49.812,111.073,111.073
	S394.33,529.033,333.218,529.033z M550.904,240.125c0,22.155-17.844,39.85-39.85,39.85c-22.155,0-39.85-17.843-39.85-39.85
	c0-22.006,17.843-39.849,39.85-39.849C533.06,200.277,550.904,218.119,550.904,240.125z M664.058,280.57
	c-2.528-53.38-14.721-100.664-53.827-139.621c-38.957-38.958-86.241-51.15-139.621-53.827c-55.016-3.122-219.915-3.122-274.931,0
	c-53.232,2.528-100.517,14.721-139.622,53.678C16.95,179.757,4.906,227.04,2.231,280.421c-3.123,55.016-3.123,219.915,0,274.931
	c2.527,53.381,14.72,100.665,53.826,139.622c39.105,38.957,86.241,51.15,139.622,53.826c55.016,3.123,219.915,3.123,274.931,0
	c53.38-2.527,100.664-14.72,139.621-53.826c38.958-38.957,51.15-86.241,53.827-139.622
	C667.18,500.336,667.18,335.586,664.058,280.57z M592.983,614.383c-11.598,29.144-34.05,51.596-63.343,63.343
	c-43.864,17.396-147.948,13.382-196.422,13.382c-48.473,0-152.706,3.866-196.422-13.382c-29.144-11.599-51.596-34.051-63.343-63.343
	c-17.396-43.864-13.382-147.948-13.382-196.422s-3.866-152.707,13.382-196.422c11.599-29.144,34.051-51.597,63.343-63.343
	c43.864-17.397,147.949-13.383,196.422-13.383c48.474,0,152.707-3.865,196.422,13.383c29.144,11.598,51.597,34.05,63.343,63.343
	c17.397,43.864,13.383,147.948,13.383,196.422S610.38,570.667,592.983,614.383z"/>
</svg>
