<svg xmlns="http://www.w3.org/2000/svg" width="108" height="109" viewBox="0 0 108 109">
  <g fill="none" fill-rule="evenodd" transform="translate(0 1)">
    <g fill="#FFF">
      <g transform="translate(.197 26.621)">
        <polygon points="30.626 .13 15.385 33.927 .099 .13 7.54 .13 15.385 17.44 23.186 .13"/>
        <polygon points="55.109 33.927 31.527 33.927 31.527 .13 55.109 .13 55.109 6.999 38.335 6.999 38.335 13.594 46.678 13.594 46.678 20.464 38.335 20.464 38.335 27.059 55.109 27.059"/>
        <polygon points="82.3 33.927 58.718 33.927 58.718 .13 65.528 .13 65.528 27.059 82.3 27.059"/>
      </g>
      <g transform="translate(0 96.478)">
        <polygon points=".18 .189 4.988 .189 4.988 1.27 1.34 1.27 1.34 5.149 4.741 5.149 4.741 6.233 1.34 6.233 1.34 11.178 .18 11.178"/>
        <path fill-rule="nonzero" d="M18.9317299.298440408C19.2718905.215173333 19.6455547.15332351 20.0527226.116493842 20.4598905.0812654633 20.8335547.0616496618 21.1737153.0616496618 21.575562.0616496618 21.9567153.112090294 22.3175693.210769785 22.6782263.311851212 22.9925693.478585524 23.2604015.713374658 23.5282336.950565728 23.7420657 1.25961468 23.9018978 1.64152233 24.0617299 2.02342997 24.1415474 2.50161517 24.1415474 3.07627809 24.1415474 3.94737981 23.9633869 4.64273996 23.6080511 5.16496063 23.2527153 5.68938308 22.780708 6.04046589 22.1932117 6.21840924L22.780708 6.79947731 24.9139051 11.1786049 23.5692263 11.1786049 21.2503796 6.39134855 20.0915474 6.15435764 20.0915474 11.1786049 18.9315328 11.1786049 18.9317299.298440408zM20.0915474 5.36852461L21.018219 5.36852461C21.6057153 5.36852461 22.0702336 5.18657804 22.4103942 4.82008281 22.7505547 4.45378775 22.9200438 3.89433708 22.9200438 3.13952905 22.9200438 2.56466596 22.7785401 2.08868254 22.4945474 1.71117844 22.2115401 1.3338745 21.791562 1.14532261 21.2352044 1.14532261 21.0288613 1.14532261 20.8150292 1.15392955 20.593708 1.16934196 20.3712044 1.18475438 20.2036861 1.20877373 20.0915474 1.23979872L20.0915474 5.36852461zM42.5104161 8.10232682L39.459219 8.10232682 38.5964015 11.1782046 37.4525474 11.1782046 40.7142263.0154124155 41.3482336.0154124155 44.6099124 11.1782046 43.3884088 11.1782046 42.5104161 8.10232682zM39.7670584 7.07990321L42.232927 7.07990321 41.2932482 3.66835504 41.008073 2.00981901 40.9755547 2.00981901 40.6763869 3.69877955 39.7670584 7.07990321z"/>
        <polygon points="64.753 3.956 64.892 2.293 64.831 2.293 64.336 3.846 62.156 8.62 61.77 8.62 59.482 3.846 59.003 2.293 58.941 2.293 59.158 3.956 59.158 11.178 58.045 11.178 58.045 .189 59.019 .189 61.631 5.59 62.018 6.876 62.048 6.876 62.42 5.573 64.893 .189 65.914 .189 65.914 11.178 64.754 11.178 64.754 3.956"/>
        <polygon points="80.26 .189 85.068 .189 85.068 1.27 81.42 1.27 81.42 4.993 84.774 4.993 84.774 6.075 81.42 6.075 81.42 10.096 85.145 10.096 85.145 11.178 80.26 11.178"/>
      </g>
      <g transform="translate(1.182 57.046)">
        <polygon points="26.439 .236 11.378 17.184 26.394 34.035 17.239 34.035 6.824 22.355 6.824 34.035 .016 34.035 .016 .236 6.824 .236 6.824 12.006 17.285 .236"/>
        <path fill-rule="nonzero" d="M53.5835693 34.081054L46.1709854 34.081054 40.4272774 21.1196129 36.8544088 21.1196129 36.8544088 34.0348167 30.0456788 34.0348167 30.0456788.189752855 42.1757737.189752855C42.3551168.189752855 42.5872774.213772204 42.8746204.26000945 43.1597956.306046536 43.460146.367496036 43.7764599.441956017 44.0919854.518817933 44.3844526.595880011 44.6546496.672341604 44.925635.747001747 45.1353285.817258342 45.2874745.87830752 45.9829708 1.18315309 46.6558029 1.5342359 47.3071533 1.93155596 47.9573212 2.3284757 48.6021679 2.87731782 49.2349927 3.57888297 49.9639927 4.37312277 50.5311898 5.19798724 50.9383577 6.05167492 51.3476934 6.90716406 51.6285328 7.74764111 51.778708 8.57250558 51.9320365 9.27467121 52.0055474 9.97683683 52.0055474 10.678402 52.0055474 12.1750076 51.6502117 13.7172499 50.9436788 15.3031274 50.2339927 16.891607 48.9898248 18.295538 47.2111752 19.5153206L53.5835693 34.081054zM45.1968175 10.6545828C45.1968175 10.049095 45.0389562 9.42799471 44.7238248 8.78988068 44.4073139 8.1535681 43.8284891 7.65116339 42.9871533 7.28907171 42.8357956 7.22762221 42.6489635 7.17517996 42.4223212 7.12894272 42.1976496 7.08310579 42.0539781 7.05848596 41.9956423 7.05848596L36.8546058 7.05848596 36.8546058 14.2502793 41.9956423 14.2502793C42.0539781 14.2502793 42.1976496 14.2196546 42.4223212 14.1582051 42.6489635 14.0989574 42.8359927 14.0373077 42.9871533 13.9784603 43.8284891 13.6425898 44.4073139 13.1577993 44.7238248 12.5216868 45.0389562 11.8853743 45.1968175 11.2624725 45.1968175 10.6545828zM89.1607007 17.1836423C89.1607007 19.5333351 88.724365 21.7319061 87.850708 23.7743514 86.9778394 25.8214004 85.7876715 27.6004335 84.2831606 29.1122514 82.779635 30.623869 81.0159635 31.8214337 79.0016058 32.7057461 76.9852774 33.5940617 74.8173942 34.035217 72.5007153 34.035217 70.1808832 34.035217 68.013 33.594462 65.9988394 32.7057461 63.9791606 31.8214337 62.2109562 30.6168634 60.693438 29.0880318 59.1705985 27.5610017 57.9751095 25.7751632 57.1012555 23.7303159 56.2272044 21.6854687 55.7910657 19.4894998 55.7910657 17.1356036 55.7910657 14.8167356 56.2275985 12.62497 57.1012555 10.5651107 57.9751095 8.5026493 59.1705985 6.70119815 60.693438 5.15915595 62.2109562 3.61911538 63.9791606 2.40553778 65.9988394 1.51922381 68.0131971.635111614 70.1810803.189752855 72.5007153.189752855 74.8477445.189752855 77.0315912.641716935 79.0459489 1.54104138 81.0622774 2.44276777 82.8229927 3.66455198 84.3296715 5.20499288 85.8343796 6.74723523 87.016073 8.54848623 87.8725839 10.6085457 88.731854 12.670807 89.1607007 14.8625725 89.1607007 17.1836423zM82.3541387 17.1836423C82.3541387 16.2973283 82.2309635 15.3803897 81.9901314 14.4328264 81.7500876 13.4892663 81.3604599 12.5875399 80.8194745 11.7320507 80.2794745 10.8765616 79.5859489 10.0911289 78.7459927 9.37375102 77.9024891 8.65637314 76.8782628 8.06849957 75.6776496 7.60993017 75.4378029 7.52025794 75.1538102 7.44980118 74.8209416 7.40396426 74.4902409 7.35792717 74.2042774 7.30528477 73.9632482 7.24363511 73.6964015 7.18438738 73.3798905 7.13855045 73.0192336 7.10572401 72.6583796 7.07710095 72.4457299 7.05968693 72.3862117 7.05968693 71.6950511 7.05968693 70.9723577 7.1517611 70.2236496 7.33630976 69.4711971 7.52065826 68.7169708 7.80989125 67.9696423 8.2052097 67.2158102 8.60453137 66.5006058 9.10693609 65.8244234 9.718829 65.1470584 10.3287203 64.5556204 11.0615106 64.0445912 11.9169997 63.4117664 12.9854604 63.0075547 14.0387089 62.8274234 15.0761446 62.7667226 15.4120151 62.7127226 15.7474854 62.6681825 16.0829556 62.6250219 16.4188262 62.6035401 16.7875232 62.6035401 17.1842428 62.6035401 18.5247226 62.8571825 19.7993494 63.3672263 21.0063216 63.8804234 22.2126934 64.5845912 23.274749 65.4850511 24.1918878 66.3892555 25.1064245 67.4400876 25.8326094 68.6430657 26.3638374 69.8472263 26.8992687 71.1241095 27.1688859 72.4784453 27.1688859 73.7992774 27.1688859 75.06 26.9076755 76.2639635 26.3858551 77.4671387 25.8702398 78.5181679 25.1594672 79.4213869 24.2575406 80.3218467 23.360418 81.036854 22.3073697 81.5616788 21.0983958 82.0894599 19.893225 82.3541387 18.5855716 82.3541387 17.1836423z"/>
      </g>
      <polygon stroke="#FFF" points="76.401 .083 75.014 37.577 107.885 20.311"/>
    </g>
    <circle cx="73.5" cy="74.5" r="5.5" fill="#F00"/>
  </g>
</svg>
