<?xml version="1.0" encoding="utf-8"?>
<!-- Generator: Adobe Illustrator 16.0.0, SVG Export Plug-In . SVG Version: 6.00 Build 0)  -->
<!DOCTYPE svg PUBLIC "-//W3C//DTD SVG 1.1//EN" "http://www.w3.org/Graphics/SVG/1.1/DTD/svg11.dtd">
<svg version="1.1" id="Layer_1" xmlns="http://www.w3.org/2000/svg" xmlns:xlink="http://www.w3.org/1999/xlink" x="0px" y="0px"
	 width="322px" height="317px" viewBox="0 0 322 317" enable-background="new 0 0 322 317" xml:space="preserve">
<g transform="translate(0 1)" opacity="0.2">
	<polygon fill="none" stroke="#FFFFFF" stroke-width="0.3" points="92.028,78.298 46.596,177.298 1.028,78.298 23.209,78.298 
		46.596,129.005 69.849,78.298 	"/>
	<polygon fill="none" stroke="#FFFFFF" stroke-width="0.3" points="164.45,177.732 94.45,177.732 94.45,78.733 164.45,78.733 
		164.45,98.854 114.661,98.854 114.661,118.172 139.424,118.172 139.424,138.295 114.661,138.295 114.661,157.614 164.45,157.614 	
		"/>
	<polygon fill="none" stroke="#FFFFFF" stroke-width="0.3" points="245.07,177.191 175.071,177.191 175.071,78.191 195.285,78.191 
		195.285,157.072 245.071,157.072 	"/>
	<g transform="translate(.37 .365)">
		<polygon fill="none" stroke="#FFFFFF" stroke-width="0.3" points="0.293,282.56 14.602,282.56 14.602,285.723 3.745,285.723 
			3.745,297.069 13.866,297.069 13.866,300.239 3.745,300.239 3.745,314.705 0.293,314.705 		"/>
		<path fill="none" stroke="#FFFFFF" stroke-width="0.3" d="M59.546,297.711h2.758c1.749,0,3.131-0.531,4.144-1.604
			c1.012-1.072,1.517-2.708,1.517-4.916c0-1.682-0.421-3.074-1.267-4.178c-0.842-1.104-2.093-1.656-3.747-1.656
			c-0.614,0-1.251,0.025-1.909,0.07c-0.662,0.047-1.161,0.115-1.495,0.207V297.711z M56.095,282.881
			c1.013-0.244,2.124-0.425,3.336-0.532c1.212-0.103,2.324-0.161,3.336-0.161c1.195,0,2.33,0.148,3.404,0.438
			c1.072,0.295,2.009,0.783,2.805,1.469c0.797,0.694,1.434,1.6,1.909,2.716c0.477,1.117,0.714,2.516,0.714,4.196
			c0,2.549-0.531,4.582-1.588,6.109c-1.058,1.535-2.462,2.562-4.211,3.082l1.749,1.699l6.348,12.811h-4.002l-6.899-14.004
			l-3.449-0.693v14.697h-3.452L56.095,282.881z M118.096,302.717h7.339l-2.797-9.979l-0.849-4.852h-0.097l-0.891,4.94
			L118.096,302.717z M126.26,305.708h-9.08l-2.567,8.998h-3.403l9.706-32.653h1.886l9.706,32.653h-3.635L126.26,305.708z"/>
		<polygon fill="none" stroke="#FFFFFF" stroke-width="0.3" points="192.449,293.578 192.864,288.714 192.681,288.714 
			191.209,293.259 184.72,307.224 183.572,307.224 176.763,293.259 175.338,288.714 175.152,288.714 175.799,293.578 
			175.799,314.705 172.486,314.705 172.486,282.561 175.385,282.561 183.16,298.362 184.311,302.121 184.4,302.121 185.505,298.309 
			192.866,282.561 195.904,282.561 195.904,314.705 192.451,314.705 192.451,293.578 		"/>
		<polygon fill="none" stroke="#FFFFFF" stroke-width="0.3" points="238.593,282.56 252.901,282.56 252.901,285.723 
			242.046,285.723 242.046,296.614 252.027,296.614 252.027,299.778 242.046,299.778 242.046,311.541 253.13,311.541 
			253.13,314.705 238.593,314.705 		"/>
		<polygon fill="none" stroke="#FFFFFF" stroke-width="0.3" points="81.955,167.354 37.135,216.929 81.82,266.221 54.578,266.221 
			23.585,232.055 23.585,266.221 3.324,266.221 3.324,167.354 23.585,167.354 23.585,201.783 54.713,167.354 		"/>
		<path fill="none" stroke="#FFFFFF" stroke-width="0.3" d="M137.773,197.83c0-1.771-0.47-3.588-1.407-5.453
			c-0.941-1.863-2.664-3.332-5.168-4.391c-0.45-0.181-1.007-0.334-1.681-0.469c-0.669-0.135-1.096-0.207-1.27-0.207h-15.299v21.037
			h15.299c0.174,0,0.601-0.088,1.27-0.27c0.674-0.172,1.23-0.354,1.681-0.525c2.504-0.981,4.227-2.4,5.168-4.262
			C137.303,201.43,137.773,199.609,137.773,197.83z M162.73,266.356h-22.059l-17.091-37.914h-10.633v37.779H92.687v-99.002h36.097
			c0.533,0,1.225,0.07,2.079,0.205c0.849,0.135,1.742,0.314,2.684,0.533c0.939,0.225,1.81,0.449,2.613,0.674
			c0.807,0.219,1.431,0.424,1.884,0.602c2.068,0.893,4.071,1.92,6.01,3.082c1.935,1.16,3.854,2.767,5.736,4.818
			c2.169,2.323,3.857,4.736,5.069,7.232c1.218,2.504,2.054,4.963,2.5,7.375c0.457,2.053,0.676,4.107,0.676,6.16
			c0,4.378-1.058,8.889-3.16,13.527c-2.111,4.646-5.814,8.754-11.107,12.322L162.73,266.356z M248.344,216.929
			c0-2.593-0.366-5.274-1.083-8.046c-0.714-2.761-1.874-5.398-3.483-7.9c-1.606-2.503-3.671-4.801-6.17-6.898
			c-2.511-2.099-5.558-3.818-9.131-5.16c-0.714-0.262-1.559-0.469-2.55-0.602c-0.983-0.135-1.835-0.289-2.552-0.469
			c-0.794-0.174-1.735-0.309-2.809-0.404c-1.074-0.084-1.707-0.135-1.884-0.135c-2.058,0-4.208,0.27-6.437,0.81
			c-2.238,0.539-4.482,1.386-6.706,2.542c-2.244,1.168-4.372,2.637-6.385,4.428c-2.016,1.783-3.775,3.927-5.296,6.43
			c-1.883,3.125-3.086,6.206-3.622,9.24c-0.181,0.982-0.341,1.965-0.475,2.945c-0.128,0.982-0.192,2.061-0.192,3.222
			c0,3.921,0.755,7.649,2.273,11.181c1.527,3.528,3.622,6.635,6.302,9.318c2.69,2.674,5.817,4.799,9.398,6.353
			c3.582,1.566,7.383,2.354,11.413,2.354c3.931,0,7.682-0.764,11.265-2.29c3.58-1.509,6.707-3.587,9.396-6.226
			c2.68-2.625,4.807-5.705,6.369-9.241C247.557,224.856,248.344,221.03,248.344,216.929z M268.599,216.929
			c0,6.874-1.298,13.304-3.897,19.278c-2.598,5.988-6.139,11.192-10.617,15.615c-4.474,4.42-9.722,7.924-15.717,10.512
			c-5.999,2.598-12.45,3.888-19.345,3.888c-6.903,0-13.354-1.288-19.348-3.888c-6.01-2.588-11.272-6.111-15.787-10.583
			c-4.532-4.467-8.09-9.69-10.69-15.673c-2.601-5.98-3.898-12.404-3.898-19.29c0-6.782,1.299-13.193,3.898-19.219
			c2.601-6.034,6.158-11.304,10.69-15.813c4.515-4.506,9.777-8.055,15.787-10.648c5.994-2.586,12.445-3.889,19.348-3.889
			c6.984,0,13.482,1.322,19.478,3.953c6,2.638,11.24,6.211,15.723,10.717c4.478,4.512,7.994,9.781,10.543,15.807
			C267.323,203.729,268.599,210.139,268.599,216.929z"/>
		<polygon fill="none" stroke="#FFFFFF" stroke-width="0.3" points="227.109,0.039 222.983,109.713 320.798,59.209 		"/>
		<path fill="none" stroke="#FFFFFF" stroke-width="0.3" d="M218.584,199.16c9.838,0,17.814,7.961,17.814,17.784
			c0,9.821-7.977,17.784-17.814,17.784s-17.813-7.963-17.813-17.784C200.771,207.121,208.746,199.16,218.584,199.16z"/>
	</g>
</g>
</svg>
