<?xml version="1.0" encoding="utf-8"?>
<!-- Generator: Adobe Illustrator 16.0.0, SVG Export Plug-In . SVG Version: 6.00 Build 0)  -->
<!DOCTYPE svg PUBLIC "-//W3C//DTD SVG 1.1//EN" "http://www.w3.org/Graphics/SVG/1.1/DTD/svg11.dtd">
<svg version="1.1" id="Layer_1" xmlns="http://www.w3.org/2000/svg" xmlns:xlink="http://www.w3.org/1999/xlink" x="0px" y="0px"
	 width="108px" height="109px" viewBox="0 0 108 109" enable-background="new 0 0 108 109" xml:space="preserve">
<g>
	<g transform="translate(.197 26.621)">
		<polygon points="30.626,1.13 15.385,34.927 0.099,1.13 7.54,1.13 15.385,18.44 23.186,1.13 		"/>
		<polygon points="55.11,34.927 31.527,34.927 31.527,1.13 55.11,1.13 55.11,7.999 38.335,7.999 38.335,14.594 46.678,14.594 
			46.678,21.464 38.335,21.464 38.335,28.059 55.11,28.059 		"/>
		<polygon points="82.3,34.927 58.718,34.927 58.718,1.13 65.528,1.13 65.528,28.059 82.3,28.059 		"/>
	</g>
	<g transform="translate(0 96.478)">
		<polygon points="0.18,1.189 4.988,1.189 4.988,2.27 1.34,2.27 1.34,6.149 4.741,6.149 4.741,7.233 1.34,7.233 1.34,12.178 
			0.18,12.178 		"/>
		<path d="M18.932,1.298c0.34-0.083,0.714-0.146,1.121-0.182s0.781-0.056,1.121-0.056c0.402,0,0.783,0.051,1.144,0.15
			c0.361,0.101,0.675,0.268,0.943,0.502c0.268,0.237,0.482,0.547,0.642,0.928c0.16,0.383,0.24,0.86,0.24,1.436
			c0,0.871-0.178,1.566-0.534,2.088c-0.355,0.525-0.827,0.876-1.415,1.054l0.587,0.581l2.133,4.379h-1.345L21.25,7.391l-1.159-0.236
			v5.023h-1.16V1.298z M20.091,6.369h0.927c0.588,0,1.052-0.183,1.392-0.549c0.34-0.366,0.51-0.925,0.51-1.681
			c0-0.574-0.142-1.051-0.425-1.428c-0.283-0.377-0.703-0.566-1.259-0.566c-0.207,0-0.42,0.009-0.642,0.024
			c-0.223,0.015-0.39,0.04-0.502,0.07V6.369z M42.51,9.102h-3.051l-0.863,3.076h-1.144l3.262-11.162h0.634l3.262,11.162h-1.222
			L42.51,9.102z M39.767,8.081h2.466l-0.939-3.412L41.008,3.01h-0.033l-0.299,1.688L39.767,8.081z"/>
		<polygon points="64.753,4.956 64.893,3.293 64.831,3.293 64.336,4.846 62.156,9.62 61.77,9.62 59.482,4.846 59.003,3.293 
			58.941,3.293 59.158,4.956 59.158,12.178 58.045,12.178 58.045,1.189 59.02,1.189 61.631,6.59 62.018,7.876 62.048,7.876 
			62.42,6.573 64.893,1.189 65.914,1.189 65.914,12.178 64.754,12.178 64.754,4.956 		"/>
		<polygon points="80.26,1.189 85.068,1.189 85.068,2.27 81.42,2.27 81.42,5.993 84.773,5.993 84.773,7.075 81.42,7.075 
			81.42,11.096 85.145,11.096 85.145,12.178 80.26,12.178 		"/>
	</g>
	<g transform="translate(1.182 57.046)">
		<polygon points="26.439,1.236 11.378,18.184 26.394,35.035 17.239,35.035 6.824,23.354 6.824,35.035 0.016,35.035 0.016,1.236 
			6.824,1.236 6.824,13.006 17.285,1.236 		"/>
		<path d="M53.584,35.081h-7.413L40.427,22.12h-3.573v12.915h-6.809V1.19h12.13c0.179,0,0.411,0.023,0.699,0.07
			c0.285,0.045,0.585,0.107,0.902,0.182c0.315,0.076,0.608,0.154,0.878,0.23c0.271,0.074,0.481,0.145,0.633,0.205
			c0.696,0.305,1.369,0.656,2.02,1.054c0.65,0.397,1.295,0.946,1.928,1.647c0.729,0.794,1.296,1.619,1.703,2.473
			c0.41,0.855,0.69,1.695,0.841,2.521c0.153,0.701,0.227,1.404,0.227,2.105c0,1.496-0.355,3.039-1.062,4.625
			c-0.709,1.588-1.954,2.992-3.732,4.212L53.584,35.081z M45.197,11.655c0-0.605-0.158-1.227-0.473-1.865
			c-0.316-0.637-0.896-1.139-1.737-1.501c-0.151-0.062-0.338-0.114-0.564-0.16c-0.225-0.046-0.369-0.07-0.427-0.07h-5.141v7.192
			h5.141c0.058,0,0.202-0.031,0.427-0.093c0.227-0.06,0.414-0.12,0.564-0.18c0.841-0.336,1.42-0.821,1.737-1.456
			C45.039,12.886,45.197,12.263,45.197,11.655z M89.161,18.184c0,2.35-0.437,4.548-1.31,6.591c-0.873,2.047-2.063,3.826-3.568,5.338
			c-1.504,1.512-3.268,2.709-5.281,3.594c-2.016,0.889-4.184,1.329-6.501,1.329c-2.319,0-4.487-0.44-6.502-1.329
			c-2.02-0.885-3.788-2.089-5.306-3.618c-1.522-1.526-2.718-3.312-3.592-5.357s-1.311-4.241-1.311-6.595
			c0-2.318,0.438-4.511,1.311-6.57c0.874-2.062,2.069-3.864,3.592-5.406c1.518-1.54,3.286-2.754,5.306-3.64
			c2.015-0.884,4.183-1.329,6.502-1.329c2.347,0,4.53,0.451,6.546,1.351c2.016,0.901,3.776,2.124,5.283,3.664
			c1.505,1.542,2.687,3.344,3.543,5.403C88.732,13.671,89.161,15.862,89.161,18.184z M82.354,18.184
			c0-0.886-0.123-1.804-0.364-2.751c-0.24-0.943-0.629-1.845-1.17-2.7s-1.234-1.642-2.074-2.358
			c-0.844-0.718-1.867-1.306-3.068-1.764c-0.24-0.09-0.523-0.16-0.856-0.206c-0.331-0.046-0.616-0.099-0.858-0.161
			c-0.266-0.059-0.582-0.104-0.943-0.137c-0.361-0.029-0.573-0.047-0.633-0.047c-0.691,0-1.414,0.092-2.162,0.277
			c-0.753,0.184-1.508,0.473-2.254,0.868c-0.754,0.399-1.47,0.901-2.146,1.514c-0.677,0.61-1.268,1.343-1.779,2.198
			c-0.633,1.068-1.037,2.122-1.217,3.159c-0.061,0.336-0.115,0.671-0.16,1.007c-0.043,0.336-0.064,0.705-0.064,1.102
			c0,1.34,0.254,2.615,0.764,3.822c0.514,1.206,1.218,2.268,2.118,3.186c0.904,0.914,1.955,1.641,3.158,2.172
			c1.204,0.535,2.481,0.805,3.835,0.805c1.321,0,2.582-0.262,3.785-0.783c1.203-0.516,2.255-1.227,3.158-2.128
			c0.9-0.897,1.615-1.95,2.141-3.159C82.089,20.893,82.354,19.586,82.354,18.184z"/>
	</g>
	<polygon points="76.4,1.083 75.014,38.577 107.885,21.311 	"/>
</g>
<circle fill="#FF0000" cx="73.5" cy="75.5" r="5.5"/>
</svg>
