<?xml version="1.0" encoding="utf-8"?>
<!-- Generator: Adobe Illustrator 16.0.0, SVG Export Plug-In . SVG Version: 6.00 Build 0)  -->
<!DOCTYPE svg PUBLIC "-//W3C//DTD SVG 1.1//EN" "http://www.w3.org/Graphics/SVG/1.1/DTD/svg11.dtd">
<svg version="1.1" id="Layer_1" focusable="false" xmlns="http://www.w3.org/2000/svg" xmlns:xlink="http://www.w3.org/1999/xlink"
	 x="0px" y="0px" width="666.139px" height="675px" viewBox="0 79.5 666.139 675" enable-background="new 0 79.5 666.139 675"
	 xml:space="preserve">
<path fill="#25d366" d="M566.365,176.298C504.063,113.848,421.094,79.5,332.921,79.5C150.922,79.5,2.825,227.597,2.825,409.596
	c0,58.139,15.166,114.938,44.013,165.048L0,745.639l175.01-45.945c48.177,26.318,102.449,40.146,157.762,40.146h0.149
	c181.85,0,333.218-148.1,333.218-330.099C666.139,321.571,628.669,238.749,566.365,176.298z M332.921,684.23
	c-49.366,0-97.69-13.233-139.771-38.214l-9.962-5.948L79.402,667.279l27.656-101.259l-6.542-10.408
	c-27.508-43.716-41.932-94.122-41.932-146.016c0-151.22,123.117-274.337,274.482-274.337c73.305,0,142.149,28.549,193.896,80.439
	c51.741,51.896,83.562,120.738,83.416,194.043C610.38,561.113,484.141,684.23,332.921,684.23z M483.397,478.738
	c-8.178-4.163-48.771-24.088-56.354-26.765c-7.584-2.825-13.088-4.163-18.59,4.163c-5.502,8.327-21.263,26.765-26.17,32.415
	c-4.758,5.502-9.665,6.245-17.843,2.082c-48.474-24.237-80.294-43.271-112.263-98.14c-8.475-14.569,8.476-13.528,24.237-45.054
	c2.677-5.502,1.338-10.26-0.743-14.423c-2.082-4.164-18.587-44.757-25.427-61.262c-6.691-16.062-13.531-13.828-18.586-14.125
	c-4.762-0.298-10.263-0.298-15.765-0.298s-14.423,2.082-22.007,10.26c-7.583,8.327-28.846,28.252-28.846,68.845
	s29.59,79.847,33.604,85.349c4.163,5.502,58.142,88.771,140.959,124.604c52.34,22.602,72.859,24.534,99.029,20.669
	c15.91-2.38,48.771-19.925,55.607-39.255c6.84-19.33,6.843-35.835,4.761-39.255C497.073,484.831,491.573,482.749,483.397,478.738z"
	/>
</svg>
