<?xml version="1.0" encoding="utf-8"?>
<!-- Generator: Adobe Illustrator 16.0.0, SVG Export Plug-In . SVG Version: 6.00 Build 0)  -->
<!DOCTYPE svg PUBLIC "-//W3C//DTD SVG 1.1//EN" "http://www.w3.org/Graphics/SVG/1.1/DTD/svg11.dtd">
<svg version="1.1" id="Layer_1" focusable="false" xmlns="http://www.w3.org/2000/svg" xmlns:xlink="http://www.w3.org/1999/xlink"
	 x="0px" y="0px" width="666.139px" height="675px" viewBox="0 0 666.139 675" enable-background="new 0 0 666.139 675"
	 xml:space="preserve">
<path d="M566.365,101.229C504.062,38.779,421.094,4.431,332.921,4.431C150.922,4.431,2.825,152.528,2.825,334.526
	c0,58.14,15.166,114.938,44.013,165.049L0,670.569l175.01-45.944c48.177,26.317,102.449,40.146,157.762,40.146h0.149
	c181.851,0,333.218-148.1,333.218-330.099C666.139,246.501,628.669,163.68,566.365,101.229z M332.921,609.161
	c-49.366,0-97.69-13.233-139.771-38.215l-9.962-5.947L79.402,592.21l27.656-101.26l-6.542-10.407
	c-27.508-43.716-41.932-94.122-41.932-146.017c0-151.22,123.117-274.337,274.482-274.337c73.305,0,142.148,28.549,193.896,80.439
	c51.741,51.896,83.562,120.738,83.416,194.043C610.38,486.044,484.141,609.161,332.921,609.161z M483.397,403.669
	c-8.179-4.163-48.771-24.088-56.354-26.766c-7.584-2.824-13.088-4.163-18.59,4.163c-5.502,8.327-21.263,26.766-26.17,32.415
	c-4.758,5.502-9.665,6.245-17.843,2.082c-48.475-24.236-80.294-43.271-112.264-98.14c-8.475-14.569,8.476-13.528,24.237-45.054
	c2.677-5.502,1.338-10.26-0.743-14.423c-2.082-4.164-18.587-44.757-25.427-61.262c-6.691-16.062-13.531-13.828-18.586-14.125
	c-4.762-0.298-10.263-0.298-15.765-0.298s-14.423,2.082-22.007,10.26c-7.583,8.327-28.846,28.252-28.846,68.845
	c0,40.593,29.59,79.847,33.604,85.349c4.163,5.502,58.142,88.771,140.958,124.604c52.341,22.603,72.859,24.534,99.029,20.669
	c15.91-2.38,48.771-19.925,55.607-39.255c6.84-19.33,6.843-35.835,4.761-39.255C497.073,409.762,491.573,407.68,483.397,403.669z"/>
</svg>
